#!OML:ASF H:\BreakDance\Project 1\Capture day 1\Session 1\Male.ASF
:FULLY-SPECIFIED
:DEGREES
1277
root -10.7121 7.5416 0.437972 -244.976 -58.1682 358.967
lowerback 8.82601 5.56314 -10.563
upperback 2.17809 6.53972 6.04249
thorax -4.55922 3.40166 11.6298
lowerneck -16.3228 0.538639 -5.93422
upperneck -20.4443 1.20426 0.932437
head -4.17025 0.662859 1.38159
rclavicle 3.49861e-014 2.22639e-014
rhumerus -23.5368 -20.1233 -100.802
rradius 108.753
rwrist -32.1212
rhand -52.254 301.827
rfingers 7.12502
rthumb -24.7509 633.408
lclavicle 3.49861e-014 2.22639e-014
lhumerus -5.06942 -13.7297 77.3091
lradius 96.8848
lwrist -11.3939
lhand -50.5453 -613.09
lfingers 7.12502
lthumb -23.1124 -78.2761
rfemur -17.4543 -29.9181 -29.6841
rtibia 116.391
rfoot 2.24122 36.7307
rtoes -7.68277
lfemur -53.479 48.3919 4.31251
ltibia 94.3049
lfoot -7.20328 -4.7168
ltoes -15.8085
1278
root -10.7359 7.57211 0.464312 -244.308 -58.424 358.769
lowerback 8.58346 5.55501 -10.714
upperback 2.06681 6.5384 5.88691
thorax -4.54018 3.40962 11.5559
lowerneck -16.4536 0.542506 -5.86579
upperneck -20.5142 1.19296 0.843019
head -4.17342 0.65214 1.33924
rclavicle -8.74653e-015 4.45278e-014
rhumerus -23.8177 -20.1123 -100.882
rradius 109.028
rwrist -31.9188
rhand -52.1463 301.622
rfingers 7.12502
rthumb -24.6477 633.189
lclavicle -8.74653e-015 4.45278e-014
lhumerus -5.08838 -13.9376 76.984
lradius 96.8654
lwrist -11.2499
lhand -50.4987 -613.127
lfingers 7.12502
lthumb -23.0676 -78.2337
rfemur -16.4517 -29.2955 -28.5721
rtibia 115.964
rfoot 5.40311 36.5615
rtoes -3.05988
lfemur -48.9094 46.9565 7.16231
ltibia 92.6187
lfoot -5.68171 -2.98988
ltoes -12.3468
1279
root -10.7473 7.60882 0.487083 -243.775 -58.6523 358.78
lowerback 8.24007 5.5097 -10.7246
upperback 1.95373 6.51007 5.74179
thorax -4.44471 3.39748 11.4235
lowerneck -16.5592 0.526616 -5.9364
upperneck -20.5547 1.19841 0.92998
head -4.17457 0.656372 1.38245
rclavicle -1.1609e-013 -7.87187e-014
rhumerus -24.1079 -20.1523 -100.934
rradius 109.361
rwrist -31.7211
rhand -51.969 301.413
rfingers 7.12502
rthumb -24.4778 632.957
lclavicle -1.1609e-013 -7.87187e-014
lhumerus -4.88262 -14.2187 76.5435
lradius 96.7122
lwrist -10.9599
lhand -50.4466 -613.237
lfingers 7.12502
lthumb -23.0177 -78.1175
rfemur -15.4078 -28.7182 -27.3093
rtibia 115.389
rfoot 8.82118 36.288
rtoes 1.07131
lfemur -44.7519 45.2399 9.56196
ltibia 90.7388
lfoot -4.01471 -1.28698
ltoes -8.19121
1280
root -10.7458 7.65316 0.507321 -243.372 -58.8777 358.982
lowerback 7.81332 5.4278 -10.6137
upperback 1.84476 6.45098 5.60617
thorax -4.27724 3.36362 11.2424
lowerneck -16.2718 0.514649 -6.10847
upperneck -21.2149 1.2261 1.17243
head -3.95351 0.672976 1.43284
rclavicle 2.62396e-014 9.54166e-014
rhumerus -24.3885 -20.2319 -100.958
rradius 109.75
rwrist -31.5008
rhand -51.7502 301.2
rfingers 7.12502
rthumb -24.268 632.716
lclavicle 2.62396e-014 9.54166e-014
lhumerus -4.64712 -14.5411 76.0745
lradius 96.5875
lwrist -10.6492
lhand -50.426 -613.322
lfingers 7.12502
lthumb -22.9979 -78.0305
rfemur -14.3271 -28.1704 -25.9282
rtibia 114.658
rfoot 12.5436 35.886
rtoes 4.56423
lfemur -40.9781 43.2802 11.5025
ltibia 88.6572
lfoot -2.20277 0.250091
ltoes -3.85359
1281
root -10.7318 7.70667 0.526136 -243.06 -59.1323 359.322
lowerback 7.34052 5.31984 -10.4363
upperback 1.72998 6.36604 5.47646
thorax -4.07676 3.31456 11.0369
lowerneck -16.2788 0.478378 -6.34221
upperneck -21.349 1.24206 1.41276
head -3.9982 0.690035 1.54896
rclavicle -4.6118e-014 -6.99722e-014
rhumerus -24.6319 -20.3454 -100.965
rradius 110.176
rwrist -31.2233
rhand -51.5265 300.962
rfingers 7.12502
rthumb -24.0535 632.449
lclavicle -4.6118e-014 -6.99722e-014
lhumerus -4.40543 -14.8636 75.593
lradius 96.4945
lwrist -10.3228
lhand -50.3958 -613.373
lfingers 7.12502
lthumb -22.969 -77.9755
rfemur -13.2321 -27.6518 -24.4775
rtibia 113.78
rfoot 16.5383 35.2844
rtoes 7.59273
lfemur -37.5661 41.1237 12.9675
ltibia 86.3731
lfoot -0.192861 1.43037
ltoes 0.0927901
1282
root -10.7065 7.76959 0.544353 -242.752 -59.4228 359.675
lowerback 6.85654 5.20587 -10.2355
upperback 1.6063 6.27423 5.33958
thorax -3.87475 3.26227 10.8114
lowerneck -16.2448 0.44417 -6.54672
upperneck -21.5103 1.24388 1.58349
head -4.05646 0.700131 1.63818
rclavicle 2.3059e-014 5.08889e-014
rhumerus -24.8151 -20.4854 -100.99
rradius 110.612
rwrist -30.8537
rhand -51.3302 300.709
rfingers 7.12502
rthumb -23.8653 632.172
lclavicle 2.3059e-014 5.08889e-014
lhumerus -4.2029 -15.1679 75.1212
lradius 96.4514
lwrist -10.0463
lhand -50.3976 -613.359
lfingers 7.12502
lthumb -22.9707 -77.9897
rfemur -12.1619 -27.1119 -22.9807
rtibia 112.77
rfoot 20.6878 34.3844
rtoes 10.3537
lfemur -34.3968 38.8435 14.0142
ltibia 83.8999
lfoot 2.05158 2.18607
ltoes 2.98199
1283
root -10.6721 7.84411 0.562597 -242.459 -59.7741 360.049
lowerback 6.41103 5.0798 -10.0252
upperback 1.46187 6.16149 5.18077
thorax -3.70795 3.20255 10.5555
lowerneck -16.1958 0.420566 -6.7079
upperneck -21.6261 1.24254 1.66756
head -4.10192 0.70924 1.69232
rclavicle 1.54257e-013 9.30312e-014
rhumerus -24.917 -20.6299 -101.067
rradius 111.029
rwrist -30.3794
rhand -51.1915 300.437
rfingers 7.12502
rthumb -23.7323 631.882
lclavicle 1.54257e-013 9.30312e-014
lhumerus -4.01922 -15.428 74.6485
lradius 96.4335
lwrist -9.85053
lhand -50.4351 -613.312
lfingers 7.12502
lthumb -23.0067 -78.0406
rfemur -11.1209 -26.5746 -21.4796
rtibia 111.671
rfoot 24.7951 33.1027
rtoes 13.0858
lfemur -31.4679 36.4612 14.6543
ltibia 81.2739
lfoot 4.41875 2.44846
ltoes 3.82632
1284
root -10.6304 7.92999 0.581197 -242.183 -60.1868 360.429
lowerback 6.02924 4.95174 -9.81042
upperback 1.28949 6.03864 4.98658
thorax -3.60043 3.14221 10.2533
lowerneck -16.1097 0.407136 -6.80174
upperneck -21.6708 1.23395 1.66804
head -4.12901 0.713824 1.7079
rclavicle 3.65764e-014 1.03368e-014
rhumerus -24.934 -20.7863 -101.207
rradius 111.404
rwrist -29.7967
rhand -51.1313 300.123
rfingers 7.12502
rthumb -23.6746 631.561
lclavicle 3.65764e-014 1.03368e-014
lhumerus -3.69379 -15.6723 74.1712
lradius 96.2973
lwrist -9.70479
lhand -50.5004 -613.295
lfingers 7.12502
lthumb -23.0693 -78.0661
rfemur -10.1027 -26.0388 -19.9889
rtibia 110.512
rfoot 28.6028 31.3734
rtoes 15.9694
lfemur -28.735 34.0081 14.9447
ltibia 78.5323
lfoot 6.82824 2.34681
ltoes 2.58042
1285
root -10.5822 8.02488 0.600355 -241.881 -60.6374 360.74
lowerback 5.70376 4.8263 -9.59248
upperback 1.09955 5.91273 4.76821
thorax -3.54054 3.08334 9.91839
lowerneck -15.983 0.403348 -6.86241
upperneck -21.6472 1.22539 1.61178
head -4.13984 0.719338 1.69918
rclavicle 2.21844e-013 8.18993e-014
rhumerus -24.9057 -20.9056 -101.382
rradius 111.738
rwrist -29.143
rhand -51.1329 299.799
rfingers 7.12502
rthumb -23.6761 631.238
lclavicle 2.21844e-013 8.18993e-014
lhumerus -3.33008 -15.8745 73.6865
lradius 96.1336
lwrist -9.56746
lhand -50.5726 -613.294
lfingers 7.12502
lthumb -23.1386 -78.0753
rfemur -9.10148 -25.4555 -18.5058
rtibia 109.304
rfoot 31.8663 29.1527
rtoes 19.2001
lfemur -26.0988 31.5353 14.9665
ltibia 75.7154
lfoot 9.17168 2.03948
ltoes 0.334884
1286
root -10.5282 8.12751 0.619537 -241.549 -61.1319 360.971
lowerback 5.40272 4.6994 -9.39954
upperback 0.911154 5.77988 4.53757
thorax -3.49356 3.02158 9.58431
lowerneck -15.8398 0.406817 -6.93998
upperneck -21.5658 1.2283 1.54475
head -4.13543 0.733487 1.68942
rclavicle -4.6118e-014 -3.49861e-014
rhumerus -24.8455 -20.9433 -101.556
rradius 112.036
rwrist -28.4989
rhand -51.1776 299.536
rfingers 7.12502
rthumb -23.7189 630.98
lclavicle -4.6118e-014 -3.49861e-014
lhumerus -3.01733 -16.0197 73.2228
lradius 96.0316
lwrist -9.43232
lhand -50.6299 -613.279
lfingers 7.12502
lthumb -23.1935 -78.097
rfemur -8.10074 -24.8241 -17.0572
rtibia 108.064
rfoot 34.2216 26.707
rtoes 22.0515
lfemur -23.5418 29.0763 14.7423
ltibia 72.8727
lfoot 11.2539 1.87621
ltoes -2.60364
